<?xml version="1.0" standalone="no"?>
<!DOCTYPE svg PUBLIC "-//W3C//DTD SVG 20010904//EN"
 "http://www.w3.org/TR/2001/REC-SVG-20010904/DTD/svg10.dtd">
<svg version="1.0" xmlns="http://www.w3.org/2000/svg"
 width="200.000000pt" height="200.000000pt" viewBox="0 0 200.000000 200.000000"
 preserveAspectRatio="xMidYMid meet">

<g transform="translate(0.000000,200.000000) scale(0.100000,-0.100000)"
fill="#000000" stroke="none">
<path d="M1320 1671 c0 -76 24 -71 -332 -71 -299 0 -319 -1 -314 -17 3 -10 10
-37 16 -60 l11 -43 290 0 290 0 -7 -22 c-3 -13 -13 -35 -20 -50 l-14 -28 -246
-2 -246 -3 43 -57 42 -58 154 0 c85 0 153 -4 153 -9 0 -5 -31 -37 -70 -71 -38
-35 -67 -66 -65 -71 3 -4 41 -37 85 -73 l80 -66 75 71 c187 178 294 382 312
596 l6 73 -122 0 -121 0 0 -39z"/>
<path d="M723 873 c-102 -101 -169 -192 -218 -295 -43 -92 -75 -214 -75 -290
l0 -58 114 0 114 0 9 48 8 47 319 3 318 2 -7 36 c-3 20 -10 47 -15 60 l-10 24
-290 0 c-159 0 -290 3 -290 8 0 4 11 25 23 47 l23 40 242 5 243 5 -35 50 -36
50 -166 5 -166 5 76 75 c42 41 76 78 76 81 0 8 -154 139 -163 139 -3 0 -46
-39 -94 -87z"/>
</g>
</svg>
